
        <svg xmlns="http://www.w3.org/2000/svg" xmlns:xlink="http://www.w3.org/1999/xlink" version="1.1" width="3161.9846771251364" height="797.0327650791796" viewBox="0 0 3161.9846771251364 797.0327650791796">
			
			<g transform="scale(8.09923385625684) translate(10, 10)">
				<defs id="SvgjsDefs1011"/><g id="SvgjsG1012" featureKey="symbolFeature-0" transform="matrix(1.0510510510510511,0,0,1.0510510510510511,-5.255255255255255,-13.348349150236663)" fill="#fff"><path xmlns="http://www.w3.org/2000/svg" d="M5,20.1l7.4-7.4l26.1,26.1l7.5,7.4l-7.5,7.4L12.4,79.7L5,72.3l26.1-26.1L5,20.1z M95,87.3V75.7H48.8v11.6H95z"/></g><g id="SvgjsG1013" featureKey="nameFeature-0" transform="matrix(0.9609654849065354,0,0,0.9609654849065354,111.73271863434512,10.468414181121574)" fill="#fff"><path d="M30.46 12 c0.36 0 0.6 0.24 0.6 0.6 l0 26.8 c0 0.36 -0.24 0.6 -0.6 0.6 l-0.94 0 c-0.36 0 -0.6 -0.24 -0.6 -0.6 l0 -24.04 l-10.52 24.22 c-0.12 0.32 -0.34 0.42 -0.66 0.42 l-1.14 0 c-0.32 0 -0.54 -0.1 -0.66 -0.42 l-10.42 -23.98 l0 23.8 c0 0.36 -0.24 0.6 -0.6 0.6 l-0.92 0 c-0.36 0 -0.6 -0.24 -0.6 -0.6 l0 -26.8 c0 -0.34 0.22 -0.58 0.56 -0.6 l1.6 0 c0.32 0 0.6 0.12 0.72 0.4 l10.92 25.3 l10.86 -25.3 c0.12 -0.28 0.4 -0.4 0.72 -0.4 l1.68 0 z M47.260000000000005 40.52 c-5.72 0 -10.3 -4.5 -10.3 -10.28 c0 -5.76 4.58 -10.28 10.3 -10.28 c5.7 0 10.28 4.52 10.28 10.28 c0 5.78 -4.58 10.28 -10.28 10.28 z M47.260000000000005 38.6 c4.6 0 8.24 -3.74 8.24 -8.36 c0 -4.6 -3.64 -8.36 -8.24 -8.36 c-4.62 0 -8.26 3.76 -8.26 8.36 c0 4.62 3.64 8.36 8.26 8.36 z M79.58000000000001 20.4 c0.36 0 0.6 0.24 0.6 0.6 l0 18.4 c0 0.36 -0.24 0.6 -0.6 0.6 l-0.68 0 c-0.36 0 -0.56 -0.24 -0.6 -0.6 l-0.16 -2.84 l-0.4 0 c-1.04 1.94 -3.78 3.88 -7.4 3.88 c-4.62 0 -7.3 -2.36 -7.3 -7.6 l0 -11.84 c0 -0.36 0.24 -0.6 0.6 -0.6 l0.84 0 c0.36 0 0.6 0.24 0.6 0.6 l0 11.96 c0 3.58 1.76 5.72 5.8 5.72 c4.76 0 7.26 -4.22 7.26 -4.96 l0 -12.72 c0 -0.36 0.24 -0.6 0.6 -0.6 l0.84 0 z M96.18 20.02 c5.94 0 9.28 4.28 9.28 10.22 s-3.62 10.22 -9.28 10.22 c-3.4 0 -5.92 -1.46 -7.42 -3.86 l-0.2 2.8 c-0.04 0.36 -0.24 0.6 -0.6 0.6 l-0.78 0 c-0.36 0 -0.6 -0.24 -0.6 -0.6 l0 -26.8 c0 -0.36 0.24 -0.6 0.6 -0.6 l0.84 0 c0.36 0 0.6 0.24 0.6 0.6 l0 11.64 l0.32 0 c1.08 -2.32 3.54 -4.22 7.24 -4.22 z M95.96000000000001 38.52 c4.82 0 7.46 -3.46 7.46 -8.32 s-2.64 -8.24 -7.46 -8.24 c-4.36 0 -7.48 3.38 -7.48 8.24 s3.12 8.32 7.48 8.32 z M129.62 38.32 c0.4 0.02 0.66 0.18 0.66 0.76 l0 0.32 c0 0.42 -0.02 0.7 -0.84 0.76 c-2.66 0.2 -3.42 -1.2 -3.46 -2.94 c-2.98 2.68 -6.62 3.26 -9.24 3.26 c-4.72 0 -6.38 -2.42 -6.38 -5.5 c0 -3 1.74 -5.12 5.9 -5.72 l7.4 -1.12 c1.78 -0.26 2.26 -0.44 2.36 -0.88 l0 -0.22 c0 -3.74 -2.04 -5.2 -5.98 -5.2 c-3.5 0 -6.1 0.96 -6.44 3.78 c-0.04 0.34 -0.26 0.5 -0.62 0.5 l-0.88 0 c-0.36 0 -0.58 -0.2 -0.54 -0.6 c0.42 -4.08 3.76 -5.56 8.44 -5.56 c5.98 0 7.96 2.9 7.96 6.8 l0 10 c0 1.04 0.6 1.5 1.66 1.56 z M112.48 34.94 c0 2.16 1.22 3.6 4.5 3.6 c2.94 0 6.22 -0.8 9.04 -3.56 l0 -5.62 c-0.06 0.32 -0.36 0.46 -1.58 0.64 l-7.2 1.06 c-3.88 0.58 -4.76 1.9 -4.76 3.88 z M145.54 19.96 c4.6 0 7.64 2.08 7.64 6.82 c0 0.44 -0.22 0.62 -0.62 0.64 l-0.86 0.02 c-0.34 0.04 -0.54 -0.16 -0.54 -0.5 c-0.02 -3.36 -2.02 -5.1 -5.52 -5.1 c-5.38 0 -8.12 4.52 -8.12 6.16 l0 11.4 c0 0.36 -0.24 0.6 -0.6 0.6 l-0.84 0 c-0.36 0 -0.6 -0.24 -0.6 -0.6 l0 -18.4 c0 -0.36 0.24 -0.6 0.6 -0.6 l0.68 0 c0.36 0 0.56 0.24 0.6 0.6 l0.16 2.84 l0.46 0 c1.28 -1.94 4.1 -3.88 7.56 -3.88 z M159.28 40 c-0.36 0 -0.6 -0.24 -0.6 -0.6 l0 -18.4 c0 -0.36 0.24 -0.6 0.6 -0.6 l0.62 0 c0.36 0 0.58 0.24 0.6 0.6 l0.14 2.22 l0.16 0 c0.62 -1.88 1.92 -3.26 4.46 -3.26 c2.36 0 3.6 1.1 4.34 3.26 l0.16 0 c0.76 -1.96 2.24 -3.26 4.9 -3.26 c3.26 0 4.94 1.5 4.94 6.44 l0 13 c0 0.36 -0.24 0.6 -0.6 0.6 l-0.8 0 c-0.36 0 -0.6 -0.24 -0.6 -0.6 l0 -13 c0 -3.34 -0.94 -4.58 -3.16 -4.58 c-2.74 0 -4.1 2.36 -4.32 4.16 l0 13.42 c0 0.36 -0.24 0.6 -0.6 0.6 l-0.76 0 c-0.36 0 -0.6 -0.24 -0.6 -0.6 l0 -13 c0 -3.34 -0.94 -4.58 -3.2 -4.58 c-2.66 0 -4.02 2.36 -4.3 4.16 l0 13.42 c0 0.36 -0.24 0.6 -0.6 0.6 l-0.78 0 z M194.7 15.32 c-0.86 0 -1.52 -0.64 -1.52 -1.5 s0.66 -1.5 1.52 -1.5 c0.84 0 1.5 0.64 1.5 1.5 s-0.66 1.5 -1.5 1.5 z M202.73999999999998 38 c0.36 0 0.6 0.24 0.6 0.6 l0 0.8 c0 0.36 -0.24 0.6 -0.6 0.6 l-16.84 0 c-0.36 0 -0.6 -0.24 -0.6 -0.6 l0 -0.8 c0 -0.36 0.24 -0.6 0.6 -0.6 l7.92 0 l0 -15.6 l-6.92 0 c-0.36 0 -0.6 -0.24 -0.6 -0.6 l0 -0.8 c0 -0.36 0.24 -0.6 0.6 -0.6 l8.36 0 c0.36 0 0.6 0.24 0.6 0.6 l0 17 l6.88 0 z M219.57999999999998 15.32 c-0.86 0 -1.5 -0.64 -1.5 -1.5 s0.64 -1.5 1.5 -1.5 s1.5 0.64 1.5 1.5 s-0.64 1.5 -1.5 1.5 z M220.54 20.4 c0.36 0 0.6 0.24 0.6 0.6 l0 18.6 c0 6.7 -3.82 8.12 -7.8 8.12 c-4.22 0 -6.8 -2.34 -6.48 -2.88 l0.46 -0.8 c0.14 -0.26 0.6 -0.36 0.92 -0.12 c0.5 0.38 2.22 1.84 5.04 1.84 c2.52 0 5.82 -0.68 5.82 -5.88 l0 -17.48 l-9.86 0 c-0.36 0 -0.6 -0.24 -0.6 -0.6 l0 -0.8 c0 -0.36 0.24 -0.6 0.6 -0.6 l11.3 0 z M246.2 38.32 c0.4 0.02 0.66 0.18 0.66 0.76 l0 0.32 c0 0.42 -0.02 0.7 -0.84 0.76 c-2.66 0.2 -3.42 -1.2 -3.46 -2.94 c-2.98 2.68 -6.62 3.26 -9.24 3.26 c-4.72 0 -6.38 -2.42 -6.38 -5.5 c0 -3 1.74 -5.12 5.9 -5.72 l7.4 -1.12 c1.78 -0.26 2.26 -0.44 2.36 -0.88 l0 -0.22 c0 -3.74 -2.04 -5.2 -5.98 -5.2 c-3.5 0 -6.1 0.96 -6.44 3.78 c-0.04 0.34 -0.26 0.5 -0.62 0.5 l-0.88 0 c-0.36 0 -0.58 -0.2 -0.54 -0.6 c0.42 -4.08 3.76 -5.56 8.44 -5.56 c5.98 0 7.96 2.9 7.96 6.8 l0 10 c0 1.04 0.6 1.5 1.66 1.56 z M229.06 34.94 c0 2.16 1.22 3.6 4.5 3.6 c2.94 0 6.22 -0.8 9.04 -3.56 l0 -5.62 c-0.06 0.32 -0.36 0.46 -1.58 0.64 l-7.2 1.06 c-3.88 0.58 -4.76 1.9 -4.76 3.88 z M261.94 19.96 c4.6 0 7.24 2.36 7.24 7.6 l0 11.84 c0 0.36 -0.24 0.6 -0.6 0.6 l-0.84 0 c-0.36 0 -0.6 -0.24 -0.6 -0.6 l0 -11.96 c0 -3.58 -1.72 -5.64 -5.58 -5.64 c-4.92 0 -7.46 4.22 -7.46 4.98 l0 12.62 c0 0.36 -0.24 0.6 -0.6 0.6 l-0.84 0 c-0.36 0 -0.6 -0.24 -0.6 -0.6 l0 -26.8 c0 -0.36 0.24 -0.6 0.6 -0.6 l0.84 0 c0.36 0 0.6 0.24 0.6 0.6 l0 11.24 l0.38 0 c1.08 -1.94 3.82 -3.88 7.46 -3.88 z"/></g>
			</g>
		</svg>
	